<svg id="svg" version="1.1" xmlns="http://www.w3.org/2000/svg" xmlns:xlink="http://www.w3.org/1999/xlink" width="400" height="482.8309305373525" viewBox="0, 0, 400,482.8309305373525"><g id="svgg"><path id="path0" d="M190.800 4.733 C 190.800 4.921,188.235 5.192,185.100 5.335 C 181.965 5.477,177.960 5.796,176.200 6.043 C 174.440 6.291,172.415 6.517,171.700 6.546 C 170.985 6.576,170.400 6.735,170.400 6.900 C 170.400 7.065,169.815 7.204,169.100 7.208 C 168.385 7.213,166.630 7.487,165.200 7.818 C 163.770 8.149,161.250 8.691,159.600 9.022 C 157.950 9.353,156.240 9.776,155.800 9.961 C 154.467 10.522,143.649 14.000,143.237 14.000 C 143.025 14.000,142.345 14.209,141.726 14.465 C 141.107 14.720,140.465 14.900,140.300 14.865 C 140.135 14.829,140.000 14.980,140.000 15.200 C 140.000 15.420,139.787 15.600,139.526 15.600 C 139.266 15.600,138.321 15.940,137.426 16.355 C 132.552 18.619,131.214 19.200,130.874 19.200 C 130.667 19.200,130.282 19.461,130.017 19.780 C 129.752 20.098,128.875 20.571,128.068 20.830 C 127.261 21.089,126.330 21.522,126.000 21.791 C 125.670 22.060,124.233 22.892,122.808 23.640 C 121.382 24.388,119.986 25.213,119.705 25.474 C 119.425 25.734,118.836 26.062,118.398 26.201 C 117.959 26.340,117.600 26.600,117.600 26.778 C 117.600 26.957,117.060 27.327,116.400 27.600 C 115.740 27.873,115.200 28.214,115.200 28.358 C 115.200 28.501,114.534 28.974,113.721 29.409 C 112.907 29.844,111.707 30.685,111.055 31.279 C 110.402 31.872,109.360 32.568,108.739 32.825 C 108.118 33.082,107.695 33.431,107.799 33.599 C 107.904 33.768,107.406 34.193,106.694 34.544 C 105.982 34.895,105.558 35.186,105.750 35.191 C 105.943 35.196,105.088 35.950,103.850 36.867 C 102.613 37.784,101.600 38.684,101.600 38.867 C 101.600 39.050,101.345 39.200,101.033 39.200 C 100.722 39.200,100.407 39.351,100.333 39.535 C 100.222 39.814,95.027 44.431,93.286 45.797 C 92.546 46.378,78.492 60.400,78.650 60.400 C 78.723 60.400,77.886 61.339,76.791 62.487 C 75.696 63.636,74.800 64.689,74.800 64.829 C 74.800 64.969,74.395 65.528,73.900 66.071 C 72.996 67.064,71.256 69.166,69.489 71.400 C 68.967 72.060,67.934 73.500,67.193 74.600 C 66.452 75.700,65.701 76.660,65.523 76.733 C 65.345 76.807,65.200 77.049,65.200 77.272 C 65.200 77.494,64.795 78.241,64.300 78.930 C 63.294 80.331,62.935 80.902,61.848 82.828 C 61.435 83.561,60.861 84.397,60.573 84.685 C 60.284 84.973,59.822 85.837,59.544 86.604 C 59.266 87.372,58.923 88.000,58.780 88.000 C 58.637 88.000,58.187 88.810,57.778 89.800 C 57.370 90.790,56.893 91.600,56.718 91.600 C 56.543 91.600,56.400 91.803,56.400 92.051 C 56.400 92.299,55.750 93.874,54.956 95.551 C 51.988 101.816,51.640 102.646,51.161 104.600 C 50.891 105.700,50.506 106.709,50.306 106.842 C 50.105 106.975,49.771 107.875,49.563 108.842 C 49.356 109.809,49.024 110.960,48.827 111.400 C 48.252 112.684,46.523 118.406,45.987 120.800 C 45.717 122.010,45.359 123.180,45.193 123.400 C 45.027 123.620,44.681 125.150,44.423 126.800 C 44.165 128.450,43.787 130.160,43.584 130.600 C 43.051 131.753,42.038 137.782,41.367 143.800 C 41.048 146.660,40.593 150.710,40.354 152.800 C 39.626 159.193,40.355 177.746,41.604 184.600 C 41.804 185.700,42.279 188.400,42.660 190.600 C 43.041 192.800,43.469 194.690,43.612 194.800 C 43.755 194.910,44.094 196.170,44.366 197.600 C 44.637 199.030,45.114 201.010,45.425 202.000 C 47.104 207.351,48.513 211.536,48.992 212.600 C 49.290 213.260,49.658 214.473,49.811 215.296 C 49.963 216.120,50.248 216.694,50.444 216.573 C 50.640 216.452,50.800 216.735,50.800 217.201 C 50.800 217.668,51.239 218.983,51.777 220.125 C 53.127 222.994,53.741 224.546,53.665 224.900 C 53.629 225.065,53.773 225.200,53.985 225.200 C 54.196 225.200,54.563 225.920,54.800 226.800 C 55.037 227.680,55.390 228.400,55.584 228.400 C 55.778 228.400,56.055 228.938,56.199 229.595 C 56.343 230.253,56.593 230.872,56.753 230.971 C 56.914 231.070,57.755 232.557,58.622 234.276 C 59.490 235.994,60.335 237.460,60.500 237.533 C 60.665 237.607,60.800 237.836,60.800 238.043 C 60.800 238.250,61.790 240.079,63.000 242.107 C 64.210 244.135,65.200 246.032,65.200 246.321 C 65.200 246.610,65.355 246.751,65.544 246.635 C 65.733 246.518,66.211 247.137,66.605 248.011 C 66.999 248.885,67.453 249.600,67.614 249.600 C 67.775 249.600,68.013 249.915,68.144 250.300 C 68.274 250.685,69.003 251.810,69.764 252.800 C 70.525 253.790,71.159 254.780,71.174 255.000 C 71.189 255.220,71.825 256.101,72.588 256.959 C 73.351 257.816,73.862 258.716,73.723 258.959 C 73.585 259.201,73.620 259.266,73.801 259.101 C 73.982 258.937,74.467 259.356,74.878 260.032 C 75.697 261.379,75.800 261.516,77.628 263.700 C 78.318 264.525,78.749 265.200,78.585 265.200 C 78.422 265.200,78.943 265.818,79.744 266.573 C 80.545 267.328,81.200 268.094,81.200 268.274 C 81.200 268.455,81.740 269.112,82.400 269.735 C 83.060 270.358,83.600 271.153,83.600 271.501 C 83.600 271.849,83.713 272.021,83.851 271.883 C 83.989 271.745,84.523 272.210,85.037 272.916 C 85.552 273.622,86.285 274.627,86.665 275.149 C 87.045 275.671,88.491 277.267,89.878 278.695 C 91.265 280.124,92.400 281.442,92.400 281.624 C 92.400 281.806,93.390 282.891,94.600 284.035 C 95.810 285.180,96.800 286.256,96.800 286.426 C 96.800 286.597,97.520 287.464,98.400 288.353 C 99.280 289.242,100.000 290.062,100.000 290.176 C 100.000 290.290,101.215 291.637,102.700 293.169 C 106.870 297.473,111.151 302.161,114.924 306.556 C 116.248 308.098,120.179 312.459,121.700 314.074 C 122.525 314.949,123.200 315.796,123.200 315.957 C 123.200 316.117,123.785 316.846,124.500 317.578 C 125.215 318.309,125.800 319.037,125.800 319.195 C 125.800 319.354,126.385 319.976,127.100 320.577 C 127.815 321.179,128.400 321.837,128.400 322.039 C 128.400 322.367,129.655 323.938,131.129 325.456 C 131.419 325.755,131.575 326.000,131.475 326.000 C 131.374 326.000,131.900 326.664,132.643 327.475 C 133.386 328.286,134.098 329.278,134.226 329.680 C 134.353 330.083,134.625 330.308,134.829 330.182 C 135.033 330.056,135.200 330.117,135.200 330.317 C 135.200 330.517,136.100 331.870,137.200 333.323 C 138.300 334.776,139.200 336.144,139.200 336.362 C 139.200 336.581,139.444 336.904,139.742 337.080 C 140.039 337.256,140.518 337.846,140.805 338.392 C 141.246 339.232,143.358 342.129,144.819 343.900 C 145.046 344.175,145.119 344.400,144.982 344.400 C 144.845 344.400,145.264 345.075,145.913 345.900 C 146.562 346.725,147.219 347.805,147.374 348.300 C 147.528 348.795,147.832 349.200,148.051 349.200 C 148.269 349.200,148.345 349.365,148.221 349.566 C 148.097 349.767,148.131 349.992,148.298 350.066 C 148.665 350.229,150.005 352.196,150.773 353.700 C 151.082 354.305,151.485 354.800,151.668 354.800 C 151.850 354.800,152.000 355.035,152.000 355.322 C 152.000 355.610,152.450 356.455,153.000 357.200 C 153.550 357.945,154.000 358.853,154.000 359.216 C 154.000 359.579,154.350 360.193,154.777 360.579 C 155.205 360.966,155.669 361.803,155.809 362.439 C 155.948 363.075,156.273 363.731,156.531 363.898 C 156.789 364.064,157.630 365.460,158.400 367.000 C 159.170 368.540,160.070 370.146,160.400 370.569 C 160.933 371.252,160.933 371.300,160.400 371.000 C 159.921 370.731,159.932 370.818,160.453 371.431 C 161.308 372.439,167.600 385.486,167.600 386.252 C 167.600 386.550,168.596 388.850,170.003 391.800 C 170.423 392.680,170.888 393.940,171.037 394.600 C 171.186 395.260,171.531 396.070,171.804 396.400 C 172.077 396.730,172.537 397.945,172.826 399.100 C 173.115 400.255,173.473 401.200,173.623 401.200 C 173.910 401.200,175.401 405.986,175.274 406.500 C 175.233 406.665,175.346 406.800,175.524 406.800 C 175.848 406.800,177.034 410.733,176.881 411.300 C 176.836 411.465,176.964 411.600,177.165 411.600 C 177.366 411.600,177.651 412.320,177.800 413.200 C 177.949 414.080,178.205 414.800,178.370 414.800 C 178.534 414.800,178.984 416.105,179.369 417.700 C 179.754 419.295,180.214 420.780,180.391 421.000 C 180.568 421.220,180.932 422.480,181.200 423.800 C 181.468 425.120,181.824 426.380,181.991 426.600 C 182.158 426.820,182.522 427.990,182.800 429.200 C 183.078 430.410,183.483 431.625,183.701 431.900 C 183.919 432.175,183.980 432.400,183.835 432.400 C 183.690 432.400,183.740 432.715,183.946 433.100 C 184.152 433.485,184.420 434.430,184.543 435.200 C 184.666 435.970,185.111 437.680,185.532 439.000 C 185.953 440.320,186.431 442.030,186.595 442.800 C 186.759 443.570,187.032 444.380,187.203 444.600 C 187.374 444.820,187.733 446.069,188.001 447.376 C 188.269 448.683,188.642 450.033,188.830 450.376 C 189.254 451.152,190.701 456.258,191.330 459.200 C 191.588 460.410,191.946 461.625,192.124 461.900 C 192.302 462.175,192.336 462.580,192.200 462.800 C 192.064 463.020,192.120 463.200,192.323 463.200 C 192.636 463.200,193.511 466.226,193.682 467.900 C 193.748 468.547,194.343 468.529,195.663 467.840 C 198.008 466.617,202.049 466.242,205.240 466.951 C 206.868 467.313,208.576 467.681,209.036 467.769 C 209.772 467.910,209.930 467.636,210.358 465.465 C 211.011 462.158,210.985 462.260,211.297 461.760 C 211.449 461.519,211.789 459.989,212.053 458.360 C 212.318 456.732,212.650 455.310,212.792 455.200 C 212.933 455.090,213.276 453.920,213.553 452.600 C 213.830 451.280,214.299 449.660,214.595 449.000 C 214.891 448.340,215.259 447.125,215.411 446.300 C 215.564 445.475,215.824 444.800,215.990 444.800 C 216.155 444.800,216.520 443.720,216.800 442.400 C 217.080 441.080,217.484 440.000,217.697 440.000 C 217.911 440.000,217.984 439.736,217.860 439.413 C 217.736 439.090,217.777 438.738,217.950 438.631 C 218.123 438.524,218.495 437.393,218.778 436.118 C 219.060 434.843,219.404 433.620,219.542 433.400 C 220.050 432.591,220.788 430.174,220.794 429.300 C 220.797 428.805,220.955 428.400,221.145 428.400 C 221.335 428.400,221.720 427.320,222.000 426.000 C 222.280 424.680,222.652 423.600,222.826 423.600 C 223.000 423.600,223.365 422.565,223.636 421.300 C 223.908 420.035,224.317 418.640,224.546 418.200 C 224.774 417.760,225.010 417.110,225.070 416.755 C 225.129 416.400,225.398 415.590,225.667 414.955 C 225.936 414.320,226.171 413.620,226.189 413.400 C 226.207 413.180,226.322 412.820,226.444 412.600 C 226.567 412.380,226.906 411.165,227.198 409.900 C 227.489 408.635,227.854 407.600,228.009 407.600 C 228.164 407.600,228.520 406.520,228.800 405.200 C 229.080 403.880,229.442 402.800,229.605 402.800 C 229.767 402.800,230.011 402.246,230.146 401.568 C 230.282 400.891,230.637 399.766,230.935 399.068 C 231.233 398.371,231.697 397.080,231.965 396.200 C 232.233 395.320,232.608 394.240,232.798 393.800 C 233.416 392.367,234.567 388.608,234.483 388.300 C 234.437 388.135,234.552 388.000,234.737 388.000 C 234.922 388.000,235.291 387.235,235.557 386.300 C 235.824 385.365,236.294 384.060,236.603 383.400 C 236.912 382.740,237.635 380.940,238.211 379.400 C 238.786 377.860,239.604 375.837,240.028 374.904 C 240.453 373.972,240.800 373.027,240.800 372.804 C 240.800 372.582,240.935 372.400,241.100 372.400 C 241.265 372.400,241.745 371.320,242.167 370.000 C 242.589 368.680,243.055 367.600,243.203 367.600 C 243.351 367.600,243.710 366.877,244.002 365.994 C 244.293 365.111,244.772 364.189,245.066 363.945 C 245.360 363.702,245.600 363.267,245.600 362.980 C 245.600 362.692,245.841 362.216,246.135 361.922 C 246.429 361.628,247.245 360.182,247.948 358.709 C 248.651 357.236,249.445 355.799,249.713 355.516 C 249.981 355.232,250.740 353.944,251.400 352.653 C 252.060 351.363,252.824 350.219,253.098 350.111 C 253.371 350.004,253.508 349.775,253.402 349.603 C 253.296 349.431,253.477 349.068,253.804 348.796 C 254.132 348.524,254.400 348.136,254.400 347.934 C 254.400 347.731,255.120 346.612,256.000 345.446 C 256.880 344.281,257.600 343.194,257.600 343.031 C 257.600 342.868,258.208 341.984,258.950 341.067 C 259.693 340.150,260.586 338.837,260.935 338.148 C 261.285 337.460,261.847 336.791,262.185 336.661 C 262.523 336.531,262.800 336.168,262.800 335.855 C 262.800 335.541,263.331 334.717,263.979 334.023 C 264.627 333.328,265.134 332.724,265.104 332.680 C 265.016 332.548,266.555 330.262,267.200 329.568 C 267.530 329.212,268.160 328.407,268.600 327.778 C 269.040 327.149,269.670 326.352,270.000 326.007 C 270.330 325.661,271.230 324.443,272.000 323.300 C 272.770 322.156,273.605 321.216,273.857 321.210 C 274.108 321.205,274.419 320.795,274.547 320.300 C 274.676 319.805,275.281 318.860,275.891 318.200 C 276.501 317.540,277.477 316.370,278.059 315.600 C 278.642 314.830,279.452 313.840,279.859 313.400 C 280.267 312.959,281.073 311.969,281.652 311.200 C 282.231 310.430,283.131 309.320,283.652 308.732 C 284.942 307.279,286.237 305.688,287.573 303.913 C 288.189 303.095,288.806 302.540,288.946 302.679 C 289.086 302.819,289.203 302.678,289.207 302.367 C 289.211 302.055,290.111 300.836,291.207 299.658 C 292.303 298.479,293.200 297.443,293.200 297.354 C 293.200 297.166,295.949 294.132,298.053 291.998 C 298.851 291.188,299.716 290.132,299.973 289.651 C 300.230 289.171,300.639 288.900,300.882 289.051 C 301.125 289.201,301.215 289.147,301.081 288.931 C 300.948 288.716,301.460 287.953,302.219 287.237 C 302.979 286.521,303.600 285.759,303.600 285.544 C 303.600 285.329,303.780 285.264,304.000 285.400 C 304.220 285.536,304.400 285.367,304.400 285.024 C 304.400 284.681,304.580 284.400,304.800 284.400 C 305.020 284.400,305.200 284.130,305.200 283.800 C 305.200 283.470,305.368 283.200,305.574 283.200 C 305.780 283.200,306.455 282.484,307.074 281.609 C 307.693 280.733,308.425 280.013,308.700 280.009 C 308.975 280.004,309.200 279.854,309.200 279.675 C 309.200 279.497,309.515 279.001,309.900 278.574 C 310.285 278.146,311.677 276.447,312.994 274.798 C 316.504 270.402,316.513 270.391,317.600 269.168 C 318.719 267.910,318.534 268.143,321.804 263.869 C 323.122 262.147,324.560 260.151,325.000 259.434 C 325.440 258.716,326.070 257.853,326.400 257.514 C 327.072 256.824,327.792 255.815,328.515 254.550 C 329.534 252.766,332.123 248.989,332.487 248.755 C 332.697 248.621,332.836 248.441,332.797 248.355 C 332.632 247.995,333.762 246.000,334.131 246.000 C 334.352 246.000,334.415 245.882,334.270 245.737 C 334.125 245.592,334.167 245.277,334.362 245.037 C 334.667 244.661,335.639 242.966,337.364 239.800 C 337.604 239.360,337.890 238.910,338.000 238.800 C 338.110 238.690,339.219 236.589,340.465 234.132 C 341.711 231.674,342.819 229.752,342.927 229.860 C 343.035 229.969,343.254 229.459,343.412 228.729 C 343.571 227.998,344.035 226.770,344.444 226.000 C 345.560 223.900,347.200 220.175,347.200 219.741 C 347.200 219.532,347.414 219.146,347.675 218.885 C 347.936 218.624,348.205 218.043,348.274 217.593 C 348.342 217.144,348.851 215.883,349.405 214.791 C 349.958 213.699,350.400 212.713,350.388 212.599 C 350.310 211.902,350.936 209.637,351.167 209.779 C 351.320 209.874,351.684 208.879,351.975 207.568 C 352.266 206.256,352.642 205.098,352.812 204.993 C 352.981 204.888,353.332 203.857,353.592 202.701 C 353.851 201.546,354.319 199.921,354.632 199.092 C 354.944 198.262,355.201 197.182,355.202 196.692 C 355.204 196.201,355.477 195.278,355.810 194.640 C 356.142 194.003,356.338 193.404,356.244 193.310 C 356.150 193.217,356.243 192.568,356.450 191.870 C 357.423 188.595,359.153 175.451,359.180 171.124 C 359.191 169.432,359.380 167.936,359.600 167.800 C 359.837 167.654,360.000 165.204,360.000 161.800 C 360.000 158.396,359.837 155.946,359.600 155.800 C 359.380 155.664,359.200 154.419,359.200 153.034 C 359.200 149.070,358.360 139.840,357.961 139.420 C 357.762 139.211,357.599 138.491,357.598 137.820 C 357.596 137.149,357.314 134.800,356.970 132.600 C 356.322 128.454,356.271 128.198,355.895 127.200 C 355.770 126.870,355.570 125.970,355.451 125.200 C 355.056 122.658,354.757 121.430,354.431 121.012 C 354.254 120.786,353.987 119.801,353.838 118.825 C 353.689 117.849,353.320 116.499,353.018 115.825 C 352.716 115.151,352.239 113.655,351.959 112.500 C 351.678 111.345,351.337 110.400,351.200 110.400 C 350.929 110.400,349.787 106.389,349.919 105.900 C 349.964 105.735,349.809 105.600,349.576 105.600 C 349.343 105.600,349.264 105.420,349.400 105.200 C 349.536 104.980,349.475 104.800,349.264 104.800 C 349.052 104.800,348.664 103.900,348.400 102.800 C 348.136 101.700,347.758 100.800,347.560 100.800 C 347.362 100.800,347.200 100.612,347.200 100.381 C 347.200 99.728,343.173 91.816,342.764 91.667 C 342.564 91.593,342.400 91.294,342.400 91.001 C 342.400 90.708,341.592 89.148,340.605 87.534 C 339.618 85.920,338.632 84.195,338.415 83.700 C 338.198 83.205,337.857 82.800,337.658 82.800 C 337.460 82.800,337.073 82.260,336.800 81.600 C 336.527 80.940,336.162 80.400,335.991 80.400 C 335.819 80.400,335.480 79.905,335.239 79.300 C 334.997 78.695,334.156 77.390,333.370 76.400 C 331.059 73.490,330.433 72.682,329.286 71.131 C 326.667 67.589,324.567 64.976,324.102 64.680 C 323.826 64.504,323.600 64.137,323.600 63.864 C 323.600 63.591,322.900 62.723,322.044 61.936 C 321.188 61.149,320.206 60.077,319.862 59.553 C 319.519 59.029,318.149 57.453,316.819 56.051 C 315.488 54.650,314.400 53.334,314.400 53.128 C 314.400 52.922,314.265 52.823,314.100 52.909 C 313.935 52.994,312.859 52.105,311.708 50.932 C 310.557 49.760,309.742 48.800,309.897 48.800 C 310.052 48.800,309.733 48.491,309.189 48.112 C 308.645 47.734,307.592 46.879,306.848 46.212 C 306.104 45.546,304.934 44.500,304.248 43.890 C 303.562 43.279,302.432 42.225,301.737 41.547 C 301.043 40.869,300.024 40.019,299.473 39.657 C 298.460 38.993,290.876 33.378,289.400 32.200 C 288.496 31.478,285.901 29.880,284.400 29.122 C 283.850 28.844,283.310 28.511,283.200 28.382 C 283.090 28.253,281.920 27.538,280.600 26.793 C 279.280 26.048,277.962 25.205,277.672 24.920 C 277.382 24.635,276.707 24.291,276.172 24.157 C 275.637 24.023,275.200 23.788,275.200 23.636 C 275.200 23.483,274.300 23.034,273.200 22.639 C 272.100 22.243,271.200 21.758,271.200 21.560 C 271.200 21.362,270.936 21.200,270.614 21.200 C 270.292 21.200,269.257 20.773,268.314 20.252 C 267.371 19.730,266.150 19.168,265.600 19.003 C 265.050 18.837,264.354 18.505,264.054 18.264 C 263.521 17.836,262.920 17.581,259.204 16.204 C 258.217 15.838,257.297 15.357,257.160 15.135 C 257.023 14.913,256.841 14.765,256.755 14.806 C 256.464 14.946,251.962 13.533,250.880 12.962 C 250.286 12.649,249.125 12.281,248.300 12.145 C 247.475 12.009,246.800 11.777,246.800 11.629 C 246.800 11.481,245.732 11.139,244.426 10.870 C 243.120 10.600,241.570 10.129,240.981 9.824 C 240.392 9.518,238.850 9.145,237.554 8.995 C 236.259 8.844,235.107 8.574,234.996 8.393 C 234.884 8.213,233.175 7.836,231.196 7.556 C 229.218 7.276,227.600 6.937,227.600 6.803 C 227.600 6.670,227.195 6.537,226.700 6.508 C 226.205 6.480,223.370 6.176,220.400 5.833 C 217.430 5.490,213.605 5.207,211.900 5.205 C 210.195 5.202,208.800 5.030,208.800 4.821 C 208.800 4.595,205.177 4.432,199.800 4.416 C 194.850 4.401,190.800 4.544,190.800 4.733 M216.600 21.206 C 217.920 21.402,220.890 21.833,223.200 22.165 C 225.510 22.496,228.390 23.035,229.600 23.362 C 230.810 23.689,232.880 24.224,234.200 24.550 C 238.484 25.607,241.383 26.422,242.200 26.798 C 242.640 27.001,243.810 27.372,244.800 27.622 C 245.790 27.873,246.780 28.217,247.000 28.387 C 247.220 28.557,248.120 28.923,249.000 29.200 C 249.880 29.477,250.780 29.837,251.000 30.000 C 251.220 30.163,252.120 30.520,253.000 30.793 C 256.335 31.829,269.947 38.700,274.900 41.847 C 278.333 44.028,279.811 45.011,280.000 45.239 C 280.110 45.372,280.650 45.716,281.200 46.004 C 283.140 47.020,291.134 53.324,295.389 57.193 C 303.242 64.334,315.177 77.850,319.458 84.450 C 320.082 85.413,320.701 86.290,320.834 86.400 C 321.391 86.861,326.904 95.323,328.171 97.661 C 330.203 101.411,333.438 108.053,333.791 109.200 C 333.960 109.750,334.232 110.380,334.397 110.600 C 334.561 110.820,334.915 111.720,335.182 112.600 C 335.450 113.480,335.925 114.771,336.238 115.468 C 336.551 116.166,336.921 117.336,337.060 118.068 C 337.199 118.801,337.446 119.580,337.610 119.800 C 338.419 120.887,340.939 132.188,341.847 138.800 C 342.165 141.110,342.596 143.756,342.805 144.679 C 344.122 150.486,344.138 174.046,342.828 178.200 C 342.620 178.860,342.183 181.110,341.857 183.200 C 341.142 187.786,340.289 191.646,339.161 195.400 C 337.829 199.837,334.723 208.961,334.396 209.400 C 334.232 209.620,333.964 210.250,333.801 210.800 C 333.412 212.112,332.090 215.028,328.961 221.477 C 327.552 224.380,326.400 226.945,326.400 227.177 C 326.400 227.410,326.220 227.600,326.000 227.600 C 325.780 227.600,325.600 227.791,325.600 228.025 C 325.600 228.418,321.498 235.846,319.912 238.325 C 319.534 238.916,318.948 239.887,318.611 240.482 C 315.829 245.391,302.716 262.859,297.941 268.016 C 297.423 268.574,295.290 270.996,293.200 273.397 C 291.110 275.798,289.130 278.054,288.800 278.409 C 288.470 278.765,287.030 280.389,285.600 282.017 C 282.484 285.566,279.895 288.504,278.011 290.632 C 276.957 291.821,268.731 301.929,262.084 310.200 C 261.355 311.106,252.539 322.737,251.800 323.766 C 251.360 324.378,250.550 325.472,250.000 326.195 C 249.450 326.918,248.730 327.911,248.400 328.401 C 248.070 328.891,247.510 329.677,247.157 330.146 C 246.584 330.907,242.576 336.855,241.595 338.400 C 241.386 338.730,240.799 339.630,240.291 340.400 C 238.814 342.637,234.645 349.690,233.906 351.200 C 233.637 351.750,233.316 352.290,233.194 352.400 C 232.676 352.865,225.600 367.620,225.600 368.234 C 225.600 368.387,225.259 369.252,224.843 370.156 C 224.075 371.822,222.923 374.722,221.012 379.800 C 220.432 381.340,219.799 382.960,219.604 383.400 C 219.409 383.840,219.129 384.650,218.981 385.200 C 218.832 385.750,218.477 386.740,218.190 387.400 C 217.903 388.060,217.013 390.580,216.212 393.000 C 215.410 395.420,214.592 397.760,214.394 398.200 C 214.196 398.640,213.828 399.810,213.578 400.800 C 213.327 401.790,212.980 402.780,212.807 403.000 C 212.634 403.220,212.363 404.030,212.204 404.800 C 212.045 405.570,211.689 406.740,211.411 407.400 C 210.871 408.685,210.054 411.204,206.806 421.600 C 205.672 425.230,204.588 428.560,204.397 429.000 C 204.206 429.440,203.938 430.250,203.801 430.800 C 203.333 432.678,201.903 436.400,201.651 436.397 C 201.421 436.395,201.014 435.132,198.818 427.600 C 198.401 426.170,197.597 423.504,197.030 421.675 C 196.464 419.847,196.000 418.089,196.000 417.770 C 196.000 417.450,195.836 416.877,195.634 416.495 C 195.433 416.113,194.611 413.640,193.807 411.000 C 193.003 408.360,192.195 405.840,192.011 405.400 C 191.828 404.960,191.100 402.890,190.394 400.800 C 189.687 398.710,188.860 396.433,188.555 395.740 C 188.250 395.046,188.000 394.354,188.000 394.200 C 188.000 394.046,187.740 393.354,187.423 392.660 C 187.105 391.967,186.188 389.690,185.384 387.600 C 184.580 385.510,183.782 383.620,183.610 383.400 C 183.438 383.180,183.164 382.550,183.001 382.000 C 182.724 381.065,182.257 379.992,179.699 374.400 C 178.031 370.756,173.695 361.986,172.075 358.984 C 170.359 355.802,167.025 349.807,166.300 348.600 C 159.763 337.711,155.120 330.758,148.672 322.200 C 145.199 317.590,139.405 310.288,138.314 309.147 C 138.026 308.846,136.899 307.520,135.808 306.200 C 134.717 304.880,133.009 302.898,132.012 301.795 C 131.016 300.693,129.120 298.548,127.800 297.029 C 126.480 295.510,124.950 293.787,124.400 293.199 C 123.850 292.611,122.771 291.425,122.003 290.565 C 121.234 289.704,118.624 286.831,116.203 284.181 C 108.035 275.240,101.994 268.441,97.739 263.400 C 96.996 262.520,96.166 261.538,95.894 261.217 C 95.622 260.897,94.537 259.547,93.481 258.217 C 92.426 256.888,91.343 255.530,91.074 255.200 C 85.659 248.561,75.807 233.186,71.464 224.600 C 69.718 221.147,66.400 214.029,66.400 213.736 C 66.400 213.618,66.143 212.954,65.828 212.260 C 64.214 208.704,61.598 201.184,61.005 198.400 C 60.842 197.630,60.565 196.820,60.391 196.600 C 60.217 196.380,59.863 195.030,59.604 193.600 C 59.345 192.170,58.969 190.640,58.769 190.200 C 58.569 189.760,58.126 187.600,57.786 185.400 C 57.445 183.200,56.990 180.500,56.774 179.400 C 55.645 173.656,55.922 150.524,57.201 143.694 C 57.437 142.432,57.879 139.960,58.184 138.200 C 59.287 131.822,63.156 116.902,63.993 115.800 C 64.160 115.580,64.534 114.455,64.824 113.300 C 65.114 112.145,65.497 111.200,65.676 111.200 C 65.854 111.200,66.000 110.925,66.000 110.588 C 66.000 109.980,67.203 106.933,69.041 102.888 C 69.568 101.727,70.000 100.705,70.000 100.618 C 70.000 98.875,82.763 79.627,86.879 75.163 C 87.386 74.614,88.316 73.542,88.948 72.782 C 91.916 69.208,101.783 59.477,106.777 55.200 C 108.190 53.990,110.078 52.351,110.973 51.559 C 111.868 50.766,113.435 49.487,114.455 48.716 C 115.476 47.945,116.556 47.107,116.855 46.853 C 117.155 46.598,118.120 45.855,119.000 45.200 C 119.880 44.545,120.813 43.832,121.073 43.614 C 121.538 43.226,126.753 39.788,128.071 39.001 C 131.421 37.000,133.999 35.600,134.332 35.600 C 134.553 35.600,134.793 35.456,134.867 35.280 C 134.988 34.988,138.103 33.420,141.600 31.890 C 142.370 31.553,144.057 30.810,145.348 30.239 C 146.640 29.667,147.900 29.199,148.148 29.198 C 148.397 29.196,149.110 28.929,149.733 28.604 C 150.357 28.279,151.617 27.822,152.533 27.590 C 153.450 27.357,154.560 27.001,155.000 26.798 C 156.062 26.309,159.851 25.278,163.800 24.405 C 165.560 24.015,167.720 23.504,168.600 23.268 C 169.480 23.033,171.820 22.648,173.800 22.414 C 175.780 22.179,178.300 21.795,179.400 21.559 C 184.447 20.479,210.062 20.236,216.600 21.206 M194.000 73.800 C 177.734 76.627,158.790 87.879,150.983 99.350 C 150.552 99.983,149.830 100.973,149.379 101.550 C 139.010 114.802,132.715 143.892,139.319 148.040 C 141.276 149.268,143.804 148.881,145.433 147.103 L 146.694 145.727 146.897 138.964 C 148.375 89.497,207.388 64.631,245.667 97.346 C 267.473 115.983,271.651 151.165,254.963 175.633 C 252.097 179.835,249.320 183.262,242.189 191.398 C 223.703 212.491,219.253 222.622,219.025 244.138 C 218.919 254.092,218.309 257.177,215.320 262.860 C 202.643 286.964,166.627 286.498,154.987 262.079 C 152.876 257.650,152.083 253.884,151.604 246.000 C 150.409 226.359,150.578 227.133,147.241 226.055 C 143.150 224.733,140.590 227.486,140.968 232.800 C 141.101 234.670,141.389 239.890,141.608 244.400 C 142.295 258.520,144.309 265.186,150.309 273.200 C 169.555 298.906,210.164 295.293,224.489 266.600 C 227.894 259.780,228.788 255.064,228.964 243.000 C 229.130 231.606,229.931 227.587,233.588 219.800 C 236.602 213.381,239.180 209.828,248.934 198.649 C 265.467 179.700,270.837 170.167,273.856 154.400 C 282.964 106.835,241.972 65.460,194.000 73.800 M199.600 99.594 C 182.477 102.344,168.835 114.490,164.552 130.800 L 163.449 135.000 163.556 155.185 C 163.621 167.451,163.818 175.660,164.057 176.107 C 164.708 177.322,166.876 178.397,168.680 178.399 C 193.117 178.420,196.528 219.962,172.523 225.192 C 163.266 227.210,165.021 236.130,174.413 234.798 C 205.562 230.380,207.158 178.655,176.418 169.785 L 173.400 168.913 173.278 153.957 C 173.099 131.909,174.330 127.084,182.200 118.999 C 201.080 99.601,234.700 110.292,238.014 136.747 C 238.661 141.914,239.849 143.400,243.331 143.400 C 248.688 143.400,249.472 136.657,245.379 125.783 C 238.754 108.182,218.450 96.566,199.600 99.594 " stroke="none" fill="#e4c5bb" fill-rule="evenodd"></path><path id="path1" d="M190.700 21.093 C 191.635 21.177,193.165 21.177,194.100 21.093 C 195.035 21.009,194.270 20.940,192.400 20.940 C 190.530 20.940,189.765 21.009,190.700 21.093 M205.700 21.091 C 206.525 21.178,207.875 21.178,208.700 21.091 C 209.525 21.005,208.850 20.934,207.200 20.934 C 205.550 20.934,204.875 21.005,205.700 21.091 M184.700 21.482 C 185.195 21.578,186.005 21.578,186.500 21.482 C 186.995 21.387,186.590 21.309,185.600 21.309 C 184.610 21.309,184.205 21.387,184.700 21.482 M212.900 21.476 C 213.285 21.576,213.915 21.576,214.300 21.476 C 214.685 21.375,214.370 21.293,213.600 21.293 C 212.830 21.293,212.515 21.375,212.900 21.476 M294.800 57.400 C 295.546 58.170,296.247 58.800,296.357 58.800 C 296.467 58.800,295.946 58.170,295.200 57.400 C 294.454 56.630,293.753 56.000,293.643 56.000 C 293.533 56.000,294.054 56.630,294.800 57.400 M101.178 60.700 L 99.800 62.200 101.300 60.822 C 102.696 59.538,102.984 59.200,102.678 59.200 C 102.612 59.200,101.937 59.875,101.178 60.700 M305.400 68.000 C 306.259 68.880,307.052 69.600,307.162 69.600 C 307.272 69.600,306.659 68.880,305.800 68.000 C 304.941 67.120,304.148 66.400,304.038 66.400 C 303.928 66.400,304.541 67.120,305.400 68.000 M91.375 70.500 L 90.200 71.800 91.500 70.625 C 92.215 69.979,92.800 69.394,92.800 69.325 C 92.800 69.016,92.470 69.288,91.375 70.500 M201.700 72.676 C 202.085 72.776,202.715 72.776,203.100 72.676 C 203.485 72.575,203.170 72.493,202.400 72.493 C 201.630 72.493,201.315 72.575,201.700 72.676 M209.300 72.676 C 209.685 72.776,210.315 72.776,210.700 72.676 C 211.085 72.575,210.770 72.493,210.000 72.493 C 209.230 72.493,208.915 72.575,209.300 72.676 M255.600 93.000 C 256.346 93.770,257.047 94.400,257.157 94.400 C 257.267 94.400,256.746 93.770,256.000 93.000 C 255.254 92.230,254.553 91.600,254.443 91.600 C 254.333 91.600,254.854 92.230,255.600 93.000 M203.913 99.095 C 205.076 99.176,206.876 99.176,207.913 99.093 C 208.951 99.011,208.000 98.945,205.800 98.946 C 203.600 98.947,202.751 99.014,203.913 99.095 M136.537 140.200 C 136.539 141.960,136.609 142.630,136.693 141.689 C 136.778 140.749,136.777 139.309,136.691 138.489 C 136.605 137.670,136.536 138.440,136.537 140.200 M162.942 141.800 C 162.941 143.780,163.008 144.640,163.092 143.712 C 163.176 142.784,163.177 141.164,163.095 140.112 C 163.012 139.060,162.943 139.820,162.942 141.800 M173.348 142.800 C 173.348 145.110,173.414 146.055,173.495 144.900 C 173.576 143.745,173.576 141.855,173.495 140.700 C 173.414 139.545,173.348 140.490,173.348 142.800 M342.893 150.800 C 342.893 151.570,342.975 151.885,343.076 151.500 C 343.176 151.115,343.176 150.485,343.076 150.100 C 342.975 149.715,342.893 150.030,342.893 150.800 M343.368 161.800 C 343.368 166.200,343.426 168.055,343.498 165.921 C 343.570 163.788,343.570 160.188,343.499 157.921 C 343.427 155.655,343.368 157.400,343.368 161.800 M56.114 158.600 C 56.117 159.700,56.195 160.103,56.287 159.495 C 56.379 158.886,56.377 157.986,56.282 157.495 C 56.187 157.003,56.111 157.500,56.114 158.600 M56.114 167.400 C 56.117 168.500,56.195 168.903,56.287 168.295 C 56.379 167.686,56.377 166.786,56.282 166.295 C 56.187 165.803,56.111 166.300,56.114 167.400 M56.493 172.400 C 56.493 173.170,56.575 173.485,56.676 173.100 C 56.776 172.715,56.776 172.085,56.676 171.700 C 56.575 171.315,56.493 171.630,56.493 172.400 M342.893 172.800 C 342.893 173.570,342.975 173.885,343.076 173.500 C 343.176 173.115,343.176 172.485,343.076 172.100 C 342.975 171.715,342.893 172.030,342.893 172.800 M150.901 231.000 C 150.905 231.880,150.987 232.193,151.083 231.695 C 151.179 231.198,151.175 230.478,151.075 230.095 C 150.975 229.713,150.896 230.120,150.901 231.000 M140.493 232.000 C 140.493 232.770,140.575 233.085,140.676 232.700 C 140.776 232.315,140.776 231.685,140.676 231.300 C 140.575 230.915,140.493 231.230,140.493 232.000 M171.105 235.483 C 171.602 235.579,172.322 235.575,172.705 235.475 C 173.087 235.375,172.680 235.296,171.800 235.301 C 170.920 235.305,170.607 235.387,171.105 235.483 M151.293 238.400 C 151.293 239.170,151.375 239.485,151.476 239.100 C 151.576 238.715,151.576 238.085,151.476 237.700 C 151.375 237.315,151.293 237.630,151.293 238.400 M140.901 239.000 C 140.905 239.880,140.987 240.193,141.083 239.695 C 141.179 239.198,141.175 238.478,141.075 238.095 C 140.975 237.713,140.896 238.120,140.901 239.000 M228.920 241.600 C 228.920 242.810,228.995 243.305,229.087 242.700 C 229.178 242.095,229.178 241.105,229.087 240.500 C 228.995 239.895,228.920 240.390,228.920 241.600 M218.520 242.000 C 218.520 243.210,218.595 243.705,218.687 243.100 C 218.778 242.495,218.778 241.505,218.687 240.900 C 218.595 240.295,218.520 240.790,218.520 242.000 M109.600 276.600 C 110.346 277.370,111.047 278.000,111.157 278.000 C 111.267 278.000,110.746 277.370,110.000 276.600 C 109.254 275.830,108.553 275.200,108.443 275.200 C 108.333 275.200,108.854 275.830,109.600 276.600 M289.775 276.500 L 288.600 277.800 289.900 276.625 C 290.615 275.979,291.200 275.394,291.200 275.325 C 291.200 275.016,290.870 275.288,289.775 276.500 M152.800 276.925 C 152.800 276.994,153.385 277.579,154.100 278.225 L 155.400 279.400 154.225 278.100 C 153.130 276.888,152.800 276.616,152.800 276.925 M286.575 280.100 L 285.400 281.400 286.700 280.225 C 287.912 279.130,288.184 278.800,287.875 278.800 C 287.806 278.800,287.221 279.385,286.575 280.100 M184.305 280.683 C 184.802 280.779,185.522 280.775,185.905 280.675 C 186.287 280.575,185.880 280.496,185.000 280.501 C 184.120 280.505,183.807 280.587,184.305 280.683 M116.800 284.525 C 116.800 284.594,117.385 285.179,118.100 285.825 L 119.400 287.000 118.225 285.700 C 117.130 284.488,116.800 284.216,116.800 284.525 M180.828 376.200 C 180.828 376.420,181.086 377.050,181.400 377.600 C 181.714 378.150,181.972 378.420,181.972 378.200 C 181.972 377.980,181.714 377.350,181.400 376.800 C 181.086 376.250,180.828 375.980,180.828 376.200 " stroke="none" fill="#b46864" fill-rule="evenodd"></path><path id="path2" d="M192.500 20.687 C 193.105 20.778,194.095 20.778,194.700 20.687 C 195.305 20.595,194.810 20.520,193.600 20.520 C 192.390 20.520,191.895 20.595,192.500 20.687 M205.305 20.687 C 205.914 20.779,206.814 20.777,207.305 20.682 C 207.797 20.587,207.300 20.511,206.200 20.514 C 205.100 20.517,204.697 20.595,205.305 20.687 M184.700 21.082 C 185.195 21.178,186.005 21.178,186.500 21.082 C 186.995 20.987,186.590 20.909,185.600 20.909 C 184.610 20.909,184.205 20.987,184.700 21.082 M212.705 21.083 C 213.202 21.179,213.922 21.175,214.305 21.075 C 214.687 20.975,214.280 20.896,213.400 20.901 C 212.520 20.905,212.207 20.987,212.705 21.083 M180.705 21.483 C 181.202 21.579,181.922 21.575,182.305 21.475 C 182.687 21.375,182.280 21.296,181.400 21.301 C 180.520 21.305,180.207 21.387,180.705 21.483 M216.033 21.345 C 216.125 21.425,217.001 21.592,217.979 21.718 C 219.130 21.865,219.554 21.816,219.179 21.579 C 218.645 21.240,215.658 21.019,216.033 21.345 M168.800 23.200 C 168.008 23.454,167.967 23.520,168.600 23.520 C 169.040 23.520,169.850 23.376,170.400 23.200 C 171.192 22.946,171.233 22.880,170.600 22.880 C 170.160 22.880,169.350 23.024,168.800 23.200 M227.600 23.200 C 228.968 23.638,230.019 23.638,229.000 23.200 C 228.560 23.011,227.840 22.862,227.400 22.868 C 226.757 22.877,226.796 22.943,227.600 23.200 M150.900 28.012 C 149.561 28.551,149.811 28.824,151.200 28.340 C 151.860 28.110,152.400 27.849,152.400 27.761 C 152.400 27.524,151.913 27.605,150.900 28.012 M244.800 27.734 C 244.800 27.837,245.381 28.124,246.091 28.372 C 246.801 28.619,247.206 28.657,246.991 28.456 C 246.535 28.029,244.800 27.458,244.800 27.734 M256.833 32.549 C 257.245 32.917,259.600 34.000,259.600 33.821 C 259.600 33.590,257.382 32.400,256.953 32.400 C 256.796 32.400,256.742 32.467,256.833 32.549 M112.400 50.440 L 110.200 52.470 112.500 50.587 C 114.519 48.933,115.068 48.388,114.700 48.404 C 114.645 48.407,113.610 49.323,112.400 50.440 M300.400 62.200 C 301.817 63.630,303.067 64.800,303.177 64.800 C 303.287 64.800,302.217 63.630,300.800 62.200 C 299.383 60.770,298.133 59.600,298.023 59.600 C 297.913 59.600,298.983 60.770,300.400 62.200 M91.200 70.200 C 90.228 71.190,89.523 72.000,89.633 72.000 C 89.743 72.000,90.628 71.190,91.600 70.200 C 92.572 69.210,93.277 68.400,93.167 68.400 C 93.057 68.400,92.172 69.210,91.200 70.200 M318.800 84.000 C 319.270 84.660,319.744 85.200,319.854 85.200 C 319.964 85.200,319.670 84.660,319.200 84.000 C 318.730 83.340,318.256 82.800,318.146 82.800 C 318.036 82.800,318.330 83.340,318.800 84.000 M156.185 93.300 L 154.200 95.400 156.300 93.415 C 158.251 91.571,158.583 91.200,158.285 91.200 C 158.222 91.200,157.277 92.145,156.185 93.300 M163.381 100.100 L 161.800 101.800 163.500 100.219 C 165.081 98.748,165.384 98.400,165.081 98.400 C 165.016 98.400,164.251 99.165,163.381 100.100 M248.400 100.125 C 248.400 100.194,248.985 100.779,249.700 101.425 L 251.000 102.600 249.825 101.300 C 248.730 100.088,248.400 99.816,248.400 100.125 M205.100 109.082 C 205.595 109.178,206.405 109.178,206.900 109.082 C 207.395 108.987,206.990 108.909,206.000 108.909 C 205.010 108.909,204.605 108.987,205.100 109.082 M63.577 116.661 C 63.355 117.244,63.232 117.897,63.304 118.112 C 63.376 118.327,63.635 117.850,63.880 117.051 C 64.394 115.374,64.174 115.090,63.577 116.661 M337.649 120.809 C 338.254 122.600,338.595 122.948,338.228 121.400 C 338.071 120.740,337.771 120.024,337.561 119.809 C 337.350 119.594,337.390 120.044,337.649 120.809 M339.256 126.400 C 339.256 126.730,339.411 127.360,339.600 127.800 C 339.817 128.304,339.944 128.378,339.944 128.000 C 339.944 127.670,339.789 127.040,339.600 126.600 C 339.383 126.096,339.256 126.022,339.256 126.400 M341.044 135.000 C 341.373 136.471,341.602 136.790,341.594 135.767 C 341.591 135.345,341.405 134.730,341.182 134.400 C 340.885 133.962,340.848 134.124,341.044 135.000 M58.649 135.015 C 58.512 135.373,58.415 135.966,58.434 136.333 C 58.453 136.700,58.627 136.469,58.821 135.820 C 59.198 134.558,59.065 133.933,58.649 135.015 M56.893 146.000 C 56.893 146.770,56.975 147.085,57.076 146.700 C 57.176 146.315,57.176 145.685,57.076 145.300 C 56.975 144.915,56.893 145.230,56.893 146.000 M163.381 159.600 C 163.381 167.630,163.434 170.915,163.499 166.900 C 163.565 162.885,163.565 156.315,163.499 152.300 C 163.434 148.285,163.381 151.570,163.381 159.600 M342.909 147.200 C 342.909 148.190,342.987 148.595,343.082 148.100 C 343.178 147.605,343.178 146.795,343.082 146.300 C 342.987 145.805,342.909 146.210,342.909 147.200 M173.375 158.000 C 173.375 164.050,173.431 166.525,173.499 163.500 C 173.567 160.475,173.567 155.525,173.499 152.500 C 173.431 149.475,173.375 151.950,173.375 158.000 M56.493 148.800 C 56.493 149.570,56.575 149.885,56.676 149.500 C 56.776 149.115,56.776 148.485,56.676 148.100 C 56.575 147.715,56.493 148.030,56.493 148.800 M343.293 150.800 C 343.293 151.570,343.375 151.885,343.476 151.500 C 343.576 151.115,343.576 150.485,343.476 150.100 C 343.375 149.715,343.293 150.030,343.293 150.800 M343.758 161.800 C 343.758 164.880,343.821 166.087,343.897 164.482 C 343.973 162.878,343.973 160.358,343.896 158.882 C 343.819 157.407,343.757 158.720,343.758 161.800 M343.301 172.600 C 343.305 173.480,343.387 173.793,343.483 173.295 C 343.579 172.798,343.575 172.078,343.475 171.695 C 343.375 171.313,343.296 171.720,343.301 172.600 M342.867 175.667 C 342.830 176.474,342.696 177.464,342.570 177.867 C 342.353 178.557,342.366 178.559,342.794 177.893 C 343.043 177.504,343.177 176.514,343.091 175.693 L 342.934 174.200 342.867 175.667 M56.893 179.600 C 56.893 180.370,56.975 180.685,57.076 180.300 C 57.176 179.915,57.176 179.285,57.076 178.900 C 56.975 178.515,56.893 178.830,56.893 179.600 M168.505 178.687 C 169.114 178.779,170.014 178.777,170.505 178.682 C 170.997 178.587,170.500 178.511,169.400 178.514 C 168.300 178.517,167.897 178.595,168.505 178.687 M341.246 185.667 C 341.221 186.034,341.096 186.664,340.970 187.067 C 340.752 187.762,340.763 187.763,341.197 187.087 C 341.448 186.696,341.573 186.066,341.473 185.687 C 341.311 185.068,341.288 185.066,341.246 185.667 M140.893 234.400 C 140.893 235.170,140.975 235.485,141.076 235.100 C 141.176 234.715,141.176 234.085,141.076 233.700 C 140.975 233.315,140.893 233.630,140.893 234.400 M228.893 238.000 C 228.893 238.770,228.975 239.085,229.076 238.700 C 229.176 238.315,229.176 237.685,229.076 237.300 C 228.975 236.915,228.893 237.230,228.893 238.000 M218.901 238.600 C 218.905 239.480,218.987 239.793,219.083 239.295 C 219.179 238.798,219.175 238.078,219.075 237.695 C 218.975 237.313,218.896 237.720,218.901 238.600 M151.293 240.800 C 151.293 241.570,151.375 241.885,151.476 241.500 C 151.576 241.115,151.576 240.485,151.476 240.100 C 151.375 239.715,151.293 240.030,151.293 240.800 M141.293 241.200 C 141.293 241.970,141.375 242.285,141.476 241.900 C 141.576 241.515,141.576 240.885,141.476 240.500 C 141.375 240.115,141.293 240.430,141.293 241.200 M218.901 245.400 C 218.905 246.280,218.987 246.593,219.083 246.095 C 219.179 245.598,219.175 244.878,219.075 244.495 C 218.975 244.113,218.896 244.520,218.901 245.400 M228.901 245.400 C 228.905 246.280,228.987 246.593,229.083 246.095 C 229.179 245.598,229.175 244.878,229.075 244.495 C 228.975 244.113,228.896 244.520,228.901 245.400 M87.200 250.000 C 87.670 250.660,88.144 251.200,88.254 251.200 C 88.364 251.200,88.070 250.660,87.600 250.000 C 87.130 249.340,86.656 248.800,86.546 248.800 C 86.436 248.800,86.730 249.340,87.200 250.000 M228.893 250.000 C 228.893 250.770,228.975 251.085,229.076 250.700 C 229.176 250.315,229.176 249.685,229.076 249.300 C 228.975 248.915,228.893 249.230,228.893 250.000 M310.575 251.868 C 309.959 252.676,309.659 253.211,309.909 253.056 C 310.421 252.740,312.153 250.400,311.875 250.400 C 311.776 250.400,311.191 251.061,310.575 251.868 M113.400 281.200 C 114.259 282.080,115.052 282.800,115.162 282.800 C 115.272 282.800,114.659 282.080,113.800 281.200 C 112.941 280.320,112.148 279.600,112.038 279.600 C 111.928 279.600,112.541 280.320,113.400 281.200 M284.229 283.162 L 283.058 284.600 284.409 283.313 C 285.151 282.605,285.678 281.958,285.579 281.875 C 285.481 281.792,284.873 282.371,284.229 283.162 M117.800 286.000 C 118.883 287.100,119.860 288.000,119.970 288.000 C 120.080 288.000,119.283 287.100,118.200 286.000 C 117.117 284.900,116.140 284.000,116.030 284.000 C 115.920 284.000,116.717 284.900,117.800 286.000 M281.375 286.500 L 280.200 287.800 281.500 286.625 C 282.215 285.979,282.800 285.394,282.800 285.325 C 282.800 285.016,282.470 285.288,281.375 286.500 M183.900 290.689 C 184.615 290.778,185.785 290.778,186.500 290.689 C 187.215 290.601,186.630 290.528,185.200 290.528 C 183.770 290.528,183.185 290.601,183.900 290.689 M130.400 300.125 C 130.400 300.194,130.985 300.779,131.700 301.425 L 133.000 302.600 131.825 301.300 C 130.730 300.088,130.400 299.816,130.400 300.125 M146.175 318.932 C 146.791 319.739,147.376 320.400,147.475 320.400 C 147.753 320.400,146.021 318.060,145.509 317.744 C 145.259 317.589,145.559 318.124,146.175 318.932 M255.544 318.300 C 254.393 319.689,253.906 320.400,254.104 320.400 C 254.214 320.400,254.786 319.770,255.373 319.000 C 256.463 317.571,256.595 317.032,255.544 318.300 M176.600 368.000 C 176.941 368.660,177.311 369.200,177.421 369.200 C 177.531 369.200,177.341 368.660,177.000 368.000 C 176.659 367.340,176.289 366.800,176.179 366.800 C 176.069 366.800,176.259 367.340,176.600 368.000 M186.618 390.900 C 186.768 391.395,187.055 391.976,187.256 392.191 C 187.457 392.406,187.419 392.001,187.172 391.291 C 186.665 389.838,186.197 389.508,186.618 390.900 M214.467 397.180 C 214.233 397.851,214.127 398.400,214.231 398.400 C 214.501 398.400,215.256 396.322,215.057 396.124 C 214.967 396.033,214.701 396.508,214.467 397.180 M212.867 401.980 C 212.633 402.651,212.527 403.200,212.631 403.200 C 212.901 403.200,213.656 401.122,213.457 400.924 C 213.367 400.833,213.101 401.308,212.867 401.980 M211.267 406.780 C 211.033 407.451,210.927 408.000,211.031 408.000 C 211.301 408.000,212.056 405.922,211.857 405.724 C 211.767 405.633,211.501 406.108,211.267 406.780 " stroke="none" fill="#c48c84" fill-rule="evenodd"></path><path id="path3" d="M197.700 21.096 C 198.965 21.175,201.035 21.175,202.300 21.096 C 203.565 21.016,202.530 20.951,200.000 20.951 C 197.470 20.951,196.435 21.016,197.700 21.096 M178.500 22.276 C 178.885 22.376,179.515 22.376,179.900 22.276 C 180.285 22.175,179.970 22.093,179.200 22.093 C 178.430 22.093,178.115 22.175,178.500 22.276 M219.400 22.400 C 220.060 22.568,221.140 22.706,221.800 22.707 C 222.809 22.708,222.745 22.655,221.400 22.377 C 219.374 21.958,217.737 21.977,219.400 22.400 M154.600 27.414 C 153.600 27.896,153.566 27.951,154.400 27.748 C 155.533 27.471,156.807 26.821,156.200 26.830 C 155.980 26.833,155.260 27.096,154.600 27.414 M241.200 27.133 C 241.530 27.336,242.250 27.624,242.800 27.771 C 243.495 27.957,243.617 27.925,243.200 27.667 C 242.870 27.464,242.150 27.176,241.600 27.029 C 240.905 26.843,240.783 26.875,241.200 27.133 M107.178 55.500 L 105.800 57.000 107.300 55.622 C 108.696 54.338,108.984 54.000,108.678 54.000 C 108.612 54.000,107.937 54.675,107.178 55.500 M292.800 55.725 C 292.800 55.794,293.385 56.379,294.100 57.025 L 295.400 58.200 294.225 56.900 C 293.130 55.688,292.800 55.416,292.800 55.725 M103.200 59.000 C 102.228 59.990,101.523 60.800,101.633 60.800 C 101.743 60.800,102.628 59.990,103.600 59.000 C 104.572 58.010,105.277 57.200,105.167 57.200 C 105.057 57.200,104.172 58.010,103.200 59.000 M298.800 61.400 C 300.217 62.830,301.467 64.000,301.577 64.000 C 301.687 64.000,300.617 62.830,299.200 61.400 C 297.783 59.970,296.533 58.800,296.423 58.800 C 296.313 58.800,297.383 59.970,298.800 61.400 M204.691 72.289 C 205.401 72.377,206.661 72.379,207.491 72.292 C 208.321 72.205,207.740 72.133,206.200 72.131 C 204.660 72.129,203.981 72.200,204.691 72.289 M87.775 74.900 L 86.600 76.200 87.900 75.025 C 89.112 73.930,89.384 73.600,89.075 73.600 C 89.006 73.600,88.421 74.185,87.775 74.900 M203.318 83.098 C 205.033 83.173,207.733 83.172,209.318 83.097 C 210.903 83.021,209.500 82.959,206.200 82.960 C 202.900 82.961,201.603 83.022,203.318 83.098 M252.800 90.200 C 253.546 90.970,254.247 91.600,254.357 91.600 C 254.467 91.600,253.946 90.970,253.200 90.200 C 252.454 89.430,251.753 88.800,251.643 88.800 C 251.533 88.800,252.054 89.430,252.800 90.200 M153.781 95.300 L 152.200 97.000 153.900 95.419 C 155.481 93.948,155.784 93.600,155.481 93.600 C 155.416 93.600,154.651 94.365,153.781 95.300 M257.200 94.525 C 257.200 94.594,257.785 95.179,258.500 95.825 L 259.800 97.000 258.625 95.700 C 257.530 94.488,257.200 94.216,257.200 94.525 M182.581 118.900 L 181.000 120.600 182.700 119.019 C 184.281 117.548,184.584 117.200,184.281 117.200 C 184.216 117.200,183.451 117.965,182.581 118.900 M336.629 119.200 C 336.776 119.750,337.064 120.470,337.267 120.800 C 337.525 121.217,337.557 121.095,337.371 120.400 C 337.224 119.850,336.936 119.130,336.733 118.800 C 336.475 118.383,336.443 118.505,336.629 119.200 M147.309 135.600 C 147.309 136.590,147.387 136.995,147.482 136.500 C 147.578 136.005,147.578 135.195,147.482 134.700 C 147.387 134.205,147.309 134.610,147.309 135.600 M264.565 141.400 C 264.566 145.360,264.626 146.926,264.698 144.880 C 264.771 142.834,264.771 139.594,264.698 137.680 C 264.624 135.766,264.565 137.440,264.565 141.400 M248.296 137.446 C 248.412 138.521,248.572 139.475,248.653 139.567 C 248.972 139.929,248.765 136.565,248.437 136.046 C 248.222 135.707,248.168 136.251,248.296 137.446 M275.359 141.200 C 275.359 144.390,275.421 145.695,275.497 144.100 C 275.573 142.505,275.573 139.895,275.497 138.300 C 275.421 136.705,275.359 138.010,275.359 141.200 M162.893 137.200 C 162.893 137.970,162.975 138.285,163.076 137.900 C 163.176 137.515,163.176 136.885,163.076 136.500 C 162.975 136.115,162.893 136.430,162.893 137.200 M146.860 140.200 C 146.858 141.740,146.998 143.360,147.172 143.800 C 147.346 144.243,147.409 143.173,147.312 141.400 C 147.086 137.242,146.864 136.654,146.860 140.200 M57.693 144.000 C 57.693 144.770,57.775 145.085,57.876 144.700 C 57.976 144.315,57.976 143.685,57.876 143.300 C 57.775 142.915,57.693 143.230,57.693 144.000 M342.093 144.400 C 342.093 145.170,342.175 145.485,342.276 145.100 C 342.376 144.715,342.376 144.085,342.276 143.700 C 342.175 143.315,342.093 143.630,342.093 144.400 M242.300 143.882 C 242.795 143.978,243.605 143.978,244.100 143.882 C 244.595 143.787,244.190 143.709,243.200 143.709 C 242.210 143.709,241.805 143.787,242.300 143.882 M162.981 160.000 C 162.981 168.250,163.034 171.625,163.099 167.500 C 163.164 163.375,163.164 156.625,163.099 152.500 C 163.034 148.375,162.981 151.750,162.981 160.000 M56.534 157.200 C 56.534 158.850,56.605 159.525,56.691 158.700 C 56.778 157.875,56.778 156.525,56.691 155.700 C 56.605 154.875,56.534 155.550,56.534 157.200 M56.131 163.000 C 56.133 164.540,56.205 165.121,56.292 164.291 C 56.379 163.461,56.377 162.201,56.289 161.491 C 56.200 160.781,56.129 161.460,56.131 163.000 M56.531 168.600 C 56.533 170.140,56.605 170.721,56.692 169.891 C 56.779 169.061,56.777 167.801,56.689 167.091 C 56.600 166.381,56.529 167.060,56.531 168.600 M57.693 181.600 C 57.693 182.370,57.775 182.685,57.876 182.300 C 57.976 181.915,57.976 181.285,57.876 180.900 C 57.775 180.515,57.693 180.830,57.693 181.600 M340.200 188.000 C 340.048 188.691,340.007 189.341,340.109 189.442 C 340.211 189.544,340.409 189.053,340.550 188.350 C 340.883 186.683,340.560 186.360,340.200 188.000 M243.375 189.300 L 242.200 190.600 243.500 189.425 C 244.215 188.779,244.800 188.194,244.800 188.125 C 244.800 187.816,244.470 188.088,243.375 189.300 M199.340 202.400 C 199.340 204.270,199.409 205.035,199.493 204.100 C 199.577 203.165,199.577 201.635,199.493 200.700 C 199.409 199.765,199.340 200.530,199.340 202.400 M188.537 202.600 C 188.539 204.360,188.609 205.030,188.693 204.089 C 188.778 203.149,188.777 201.709,188.691 200.889 C 188.605 200.070,188.536 200.840,188.537 202.600 M218.893 234.000 C 218.893 234.770,218.975 235.085,219.076 234.700 C 219.176 234.315,219.176 233.685,219.076 233.300 C 218.975 232.915,218.893 233.230,218.893 234.000 M140.493 234.400 C 140.493 235.170,140.575 235.485,140.676 235.100 C 140.776 234.715,140.776 234.085,140.676 233.700 C 140.575 233.315,140.493 233.630,140.493 234.400 M151.293 236.000 C 151.293 236.770,151.375 237.085,151.476 236.700 C 151.576 236.315,151.576 235.685,151.476 235.300 C 151.375 234.915,151.293 235.230,151.293 236.000 M218.524 237.800 C 218.526 239.120,218.601 239.612,218.690 238.893 C 218.779 238.174,218.777 237.094,218.686 236.493 C 218.595 235.892,218.522 236.480,218.524 237.800 M140.920 242.400 C 140.920 243.610,140.995 244.105,141.087 243.500 C 141.178 242.895,141.178 241.905,141.087 241.300 C 140.995 240.695,140.920 241.190,140.920 242.400 M218.542 247.400 C 218.541 249.380,218.608 250.240,218.692 249.312 C 218.776 248.384,218.777 246.764,218.695 245.712 C 218.612 244.660,218.543 245.420,218.542 247.400 M141.337 247.800 C 141.339 249.560,141.409 250.230,141.493 249.289 C 141.578 248.349,141.577 246.909,141.491 246.089 C 141.405 245.270,141.336 246.040,141.337 247.800 M152.131 249.400 C 152.133 250.940,152.205 251.521,152.292 250.691 C 152.379 249.861,152.377 248.601,152.289 247.891 C 152.200 247.181,152.129 247.860,152.131 249.400 M311.600 249.600 C 311.130 250.260,310.836 250.800,310.946 250.800 C 311.056 250.800,311.530 250.260,312.000 249.600 C 312.470 248.940,312.764 248.400,312.654 248.400 C 312.544 248.400,312.070 248.940,311.600 249.600 M161.200 270.600 C 161.946 271.370,162.647 272.000,162.757 272.000 C 162.867 272.000,162.346 271.370,161.600 270.600 C 160.854 269.830,160.153 269.200,160.043 269.200 C 159.933 269.200,160.454 269.830,161.200 270.600 M108.800 275.400 C 109.546 276.170,110.247 276.800,110.357 276.800 C 110.467 276.800,109.946 276.170,109.200 275.400 C 108.454 274.630,107.753 274.000,107.643 274.000 C 107.533 274.000,108.054 274.630,108.800 275.400 M290.575 275.300 L 289.400 276.600 290.700 275.425 C 291.415 274.779,292.000 274.194,292.000 274.125 C 292.000 273.816,291.670 274.088,290.575 275.300 M287.375 278.900 L 286.200 280.200 287.500 279.025 C 288.215 278.379,288.800 277.794,288.800 277.725 C 288.800 277.416,288.470 277.688,287.375 278.900 M112.600 279.600 C 113.459 280.480,114.252 281.200,114.362 281.200 C 114.472 281.200,113.859 280.480,113.000 279.600 C 112.141 278.720,111.348 278.000,111.238 278.000 C 111.128 278.000,111.741 278.720,112.600 279.600 M115.200 282.525 C 115.200 282.594,115.785 283.179,116.500 283.825 L 117.800 285.000 116.625 283.700 C 115.530 282.488,115.200 282.216,115.200 282.525 M120.600 288.400 C 121.459 289.280,122.252 290.000,122.362 290.000 C 122.472 290.000,121.859 289.280,121.000 288.400 C 120.141 287.520,119.348 286.800,119.238 286.800 C 119.128 286.800,119.741 287.520,120.600 288.400 M178.900 290.676 C 179.285 290.776,179.915 290.776,180.300 290.676 C 180.685 290.575,180.370 290.493,179.600 290.493 C 178.830 290.493,178.515 290.575,178.900 290.676 M190.305 290.683 C 190.802 290.779,191.522 290.775,191.905 290.675 C 192.287 290.575,191.880 290.496,191.000 290.501 C 190.120 290.505,189.807 290.587,190.305 290.683 M183.100 291.095 C 184.255 291.176,186.145 291.176,187.300 291.095 C 188.455 291.014,187.510 290.948,185.200 290.948 C 182.890 290.948,181.945 291.014,183.100 291.095 M124.600 292.800 C 125.459 293.680,126.252 294.400,126.362 294.400 C 126.472 294.400,125.859 293.680,125.000 292.800 C 124.141 291.920,123.348 291.200,123.238 291.200 C 123.128 291.200,123.741 291.920,124.600 292.800 M247.200 328.800 C 246.730 329.460,246.436 330.000,246.546 330.000 C 246.656 330.000,247.130 329.460,247.600 328.800 C 248.070 328.140,248.364 327.600,248.254 327.600 C 248.144 327.600,247.670 328.140,247.200 328.800 M211.979 403.055 C 211.758 403.636,211.652 404.185,211.743 404.276 C 211.833 404.367,212.099 403.892,212.333 403.220 C 212.853 401.728,212.539 401.582,211.979 403.055 M201.018 433.700 C 201.168 434.195,201.455 434.776,201.656 434.991 C 201.857 435.206,201.819 434.801,201.572 434.091 C 201.065 432.638,200.597 432.308,201.018 433.700 " stroke="none" fill="#a44149" fill-rule="evenodd"></path><path id="path4" d="M197.700 20.696 C 198.965 20.775,201.035 20.775,202.300 20.696 C 203.565 20.616,202.530 20.551,200.000 20.551 C 197.470 20.551,196.435 20.616,197.700 20.696 M204.691 72.689 C 205.401 72.777,206.661 72.779,207.491 72.692 C 208.321 72.605,207.740 72.533,206.200 72.531 C 204.660 72.529,203.981 72.600,204.691 72.689 M204.900 82.687 C 205.505 82.778,206.495 82.778,207.100 82.687 C 207.705 82.595,207.210 82.520,206.000 82.520 C 204.790 82.520,204.295 82.595,204.900 82.687 M264.944 141.600 C 264.944 143.690,265.012 144.545,265.094 143.500 C 265.176 142.455,265.176 140.745,265.094 139.700 C 265.012 138.655,264.944 139.510,264.944 141.600 M56.493 151.200 C 56.493 151.970,56.575 152.285,56.676 151.900 C 56.776 151.515,56.776 150.885,56.676 150.500 C 56.575 150.115,56.493 150.430,56.493 151.200 M56.093 155.600 C 56.093 156.370,56.175 156.685,56.276 156.300 C 56.376 155.915,56.376 155.285,56.276 154.900 C 56.175 154.515,56.093 154.830,56.093 155.600 M56.493 174.800 C 56.493 175.570,56.575 175.885,56.676 175.500 C 56.776 175.115,56.776 174.485,56.676 174.100 C 56.575 173.715,56.493 174.030,56.493 174.800 M150.893 233.600 C 150.893 234.370,150.975 234.685,151.076 234.300 C 151.176 233.915,151.176 233.285,151.076 232.900 C 150.975 232.515,150.893 232.830,150.893 233.600 M218.893 248.000 C 218.893 248.770,218.975 249.085,219.076 248.700 C 219.176 248.315,219.176 247.685,219.076 247.300 C 218.975 246.915,218.893 247.230,218.893 248.000 " stroke="none" fill="#c48484" fill-rule="evenodd"></path><path id="path5" d="M185.600 21.600 C 180.720 22.022,170.157 23.500,168.600 23.979 C 167.940 24.181,166.320 24.556,165.000 24.811 C 162.589 25.277,162.022 25.431,155.400 27.435 C 144.965 30.591,134.470 35.560,124.950 41.851 C 120.710 44.653,121.726 43.903,115.443 48.876 C 102.844 58.848,89.386 72.209,82.939 81.146 C 76.145 90.563,71.932 97.873,67.805 107.400 C 66.180 111.151,62.774 121.443,61.385 126.800 C 59.753 133.091,58.038 142.160,57.148 149.200 C 56.656 153.097,56.652 172.523,57.143 176.400 C 58.090 183.875,59.503 191.140,60.994 196.200 C 61.318 197.300,61.753 198.830,61.960 199.600 C 62.424 201.327,65.447 209.905,65.978 211.000 C 66.191 211.440,67.354 214.050,68.562 216.800 C 73.930 229.016,80.547 239.980,90.761 253.582 C 91.992 255.222,93.270 256.875,93.600 257.254 C 93.930 257.633,94.381 258.181,94.602 258.471 C 95.748 259.980,102.687 268.314,103.387 269.022 C 103.834 269.475,105.550 271.350,107.200 273.190 C 108.850 275.030,110.381 276.730,110.602 276.968 C 110.823 277.206,112.611 279.200,114.575 281.400 C 116.540 283.600,118.261 285.490,118.401 285.600 C 118.774 285.892,129.423 297.788,132.000 300.790 C 133.210 302.200,134.939 304.174,135.841 305.177 C 137.644 307.179,147.722 319.621,149.000 321.422 C 149.440 322.042,150.205 323.036,150.700 323.632 C 151.195 324.228,151.600 324.815,151.600 324.937 C 151.600 325.058,152.483 326.325,153.563 327.751 C 155.660 330.521,161.684 339.562,163.392 342.503 C 163.616 342.889,165.160 345.499,166.822 348.303 C 168.484 351.106,170.369 354.390,171.011 355.600 C 171.653 356.810,172.662 358.700,173.252 359.800 C 178.564 369.704,184.310 382.562,188.984 395.000 C 189.562 396.540,190.376 398.700,190.793 399.800 C 191.209 400.900,191.772 402.610,192.045 403.600 C 192.317 404.590,192.671 405.580,192.831 405.800 C 192.991 406.020,193.327 407.010,193.578 408.000 C 193.828 408.990,194.189 410.160,194.380 410.600 C 194.704 411.346,196.138 416.024,198.061 422.600 C 198.868 425.361,199.095 426.124,200.845 431.948 L 201.731 434.895 202.227 433.548 C 202.500 432.806,203.570 429.500,204.605 426.200 C 208.154 414.888,208.507 413.798,209.011 412.600 C 209.289 411.940,209.646 410.770,209.806 410.000 C 209.966 409.230,210.318 408.150,210.590 407.600 C 210.861 407.050,211.303 405.702,211.571 404.605 C 211.840 403.508,212.200 402.428,212.372 402.205 C 212.544 401.982,212.904 400.902,213.172 399.805 C 213.440 398.708,213.798 397.628,213.968 397.405 C 214.137 397.182,214.519 396.100,214.816 395.000 C 215.113 393.900,215.590 392.550,215.876 392.000 C 216.161 391.450,216.396 390.763,216.398 390.474 C 216.399 390.185,216.738 389.105,217.151 388.074 C 217.564 387.043,218.364 384.940,218.929 383.400 C 220.939 377.919,222.064 374.983,222.628 373.740 C 222.943 373.046,223.200 372.354,223.200 372.200 C 223.200 372.046,223.453 371.354,223.763 370.660 C 224.073 369.967,225.321 367.150,226.538 364.400 C 228.567 359.812,230.889 355.168,233.267 350.942 C 237.418 343.567,238.000 342.620,243.309 334.600 C 246.949 329.101,248.964 326.335,258.607 313.600 C 260.840 310.650,274.818 293.225,276.222 291.639 C 276.729 291.068,277.497 290.190,277.928 289.689 C 278.360 289.187,279.787 287.567,281.098 286.089 C 301.640 262.928,309.015 253.894,315.782 243.600 C 318.829 238.965,319.328 238.139,322.188 233.000 C 323.657 230.360,325.015 227.930,325.206 227.600 C 325.785 226.600,328.812 220.391,330.276 217.200 C 331.033 215.550,331.802 213.917,331.985 213.572 C 333.331 211.029,336.630 201.560,338.804 194.000 C 345.728 169.923,344.268 140.206,334.855 113.600 C 328.121 94.566,309.947 70.266,289.682 53.200 C 288.768 52.430,287.611 51.488,287.110 51.107 C 286.610 50.725,285.673 50.012,285.029 49.522 C 273.355 40.634,255.823 31.677,241.800 27.435 C 239.820 26.836,237.353 26.087,236.317 25.770 C 233.186 24.814,229.248 23.965,224.366 23.195 C 221.817 22.794,218.667 22.253,217.366 21.993 C 214.487 21.419,191.047 21.129,185.600 21.600 M214.400 72.776 C 216.930 73.021,219.810 73.468,220.800 73.771 C 221.790 74.073,223.230 74.443,224.000 74.593 C 244.367 78.555,265.201 97.840,271.975 119.000 C 272.679 121.200,273.433 123.540,273.650 124.200 C 277.907 137.131,275.196 159.214,267.494 174.356 C 265.043 179.175,256.438 191.466,254.022 193.600 C 253.897 193.710,252.289 195.510,250.449 197.600 C 248.608 199.690,246.524 202.030,245.818 202.800 C 233.616 216.105,229.707 226.169,229.193 245.600 C 228.946 254.901,228.807 256.513,228.056 258.752 C 227.585 260.156,227.200 261.482,227.200 261.700 C 227.200 262.289,223.610 269.608,222.640 270.997 C 217.150 278.857,204.956 288.400,200.401 288.400 C 200.049 288.400,199.589 288.566,199.380 288.769 C 198.997 289.141,194.302 290.240,190.600 290.826 C 187.966 291.242,182.261 291.238,180.000 290.818 C 174.474 289.792,173.132 289.469,170.400 288.509 C 162.227 285.635,154.870 280.234,149.820 273.400 C 146.946 269.511,144.252 264.351,143.779 261.831 C 143.631 261.039,143.366 260.303,143.191 260.194 C 143.016 260.086,142.665 258.693,142.411 257.099 C 142.158 255.504,141.789 253.210,141.592 252.000 C 140.710 246.585,140.265 229.421,140.971 228.056 C 142.351 225.387,146.004 224.396,148.585 225.991 C 150.846 227.388,151.149 228.557,151.599 237.600 C 152.414 253.996,154.206 262.886,157.163 265.200 C 157.304 265.310,157.760 265.936,158.178 266.590 C 160.947 270.933,166.352 275.098,173.210 278.173 C 185.334 283.611,204.290 278.264,212.115 267.200 C 217.332 259.824,218.080 257.053,218.382 244.000 C 218.516 238.170,218.765 233.176,218.935 232.903 C 219.105 232.630,219.419 231.280,219.633 229.903 C 221.144 220.204,227.753 207.191,235.835 198.000 C 236.125 197.670,236.686 197.033,237.081 196.585 C 237.477 196.136,239.960 193.261,242.600 190.196 C 245.240 187.131,247.676 184.341,248.014 183.997 C 248.352 183.653,249.162 182.658,249.814 181.786 C 250.466 180.914,251.180 180.002,251.400 179.759 C 251.868 179.243,254.364 175.694,255.872 173.400 C 257.100 171.531,260.400 165.165,260.400 164.664 C 260.400 164.475,260.660 163.754,260.979 163.060 C 263.484 157.602,264.612 149.182,264.276 138.439 C 264.054 131.319,263.794 129.461,262.231 123.800 C 259.577 114.195,252.167 103.169,243.887 96.507 C 237.823 91.628,226.762 85.681,223.569 85.582 C 223.256 85.573,222.280 85.298,221.400 84.971 C 213.219 81.936,195.535 82.826,184.800 86.813 C 173.905 90.859,163.734 98.899,156.764 108.974 C 155.200 111.234,151.200 118.706,151.200 119.366 C 151.200 119.538,150.940 120.246,150.621 120.940 C 148.815 124.875,147.651 131.402,147.417 138.899 C 147.203 145.772,146.931 146.772,144.855 148.300 C 142.588 149.969,139.275 149.313,137.326 146.809 C 136.211 145.377,136.387 131.844,137.582 127.200 C 139.775 118.670,140.488 116.608,143.151 111.102 C 144.866 107.555,148.594 101.497,150.145 99.736 C 150.395 99.452,150.960 98.733,151.400 98.137 C 157.856 89.401,177.450 76.000,183.768 76.000 C 184.090 76.000,184.448 75.846,184.565 75.657 C 184.681 75.469,185.907 75.096,187.288 74.828 C 188.670 74.561,190.109 74.177,190.488 73.976 C 190.866 73.774,192.936 73.414,195.088 73.177 C 197.239 72.939,200.080 72.590,201.400 72.401 C 204.082 72.016,207.593 72.117,214.400 72.776 M215.000 99.721 C 231.515 103.031,245.389 117.203,247.991 133.420 C 248.237 134.949,248.539 136.785,248.662 137.500 C 249.165 140.401,246.233 143.995,243.361 143.999 C 240.419 144.002,238.490 142.185,237.991 138.941 C 237.357 134.818,236.427 131.070,235.602 129.316 C 235.161 128.377,234.800 127.419,234.800 127.187 C 234.800 126.956,234.613 126.549,234.385 126.283 C 234.157 126.017,233.280 124.720,232.435 123.400 C 226.616 114.309,214.750 108.613,203.400 109.462 C 201.640 109.593,200.020 109.838,199.800 110.005 C 199.580 110.173,198.590 110.440,197.600 110.599 C 191.444 111.590,181.246 118.814,178.571 124.079 C 178.202 124.806,177.710 125.638,177.477 125.929 C 176.777 126.804,175.218 130.831,174.508 133.600 C 173.951 135.770,173.820 138.890,173.712 152.463 L 173.583 168.727 175.291 169.007 C 189.635 171.356,201.954 190.700,199.213 206.570 C 198.222 212.310,197.906 213.809,197.609 214.200 C 197.441 214.420,197.087 215.274,196.822 216.097 C 194.321 223.862,185.405 232.780,178.712 234.212 C 177.990 234.366,177.165 234.682,176.878 234.914 C 176.590 235.146,174.756 235.350,172.800 235.368 L 169.246 235.400 167.834 233.862 C 164.450 230.175,166.510 225.362,171.670 224.896 C 185.194 223.672,192.811 205.132,185.765 190.587 C 182.193 183.215,177.041 179.606,169.000 178.845 C 162.635 178.242,162.800 178.858,162.800 155.672 C 162.800 132.180,162.922 131.310,167.525 122.012 C 173.071 110.809,185.767 101.174,196.834 99.770 C 198.025 99.619,199.270 99.340,199.600 99.149 C 200.542 98.605,211.456 99.010,215.000 99.721 " stroke="none" fill="#9c1c3c" fill-rule="evenodd"></path></g></svg>